<svg xmlns="http://www.w3.org/2000/svg" xmlns:xlink="http://www.w3.org/1999/xlink" width="20" zoomAndPan="magnify" viewBox="0 0 768 767.999994" height="20" preserveAspectRatio="xMidYMid meet" version="1.0"><path fill="#eaf1ed" d="M 382.875 767.605469 C 369.222656 767.605469 355.414062 762.367188 344.933594 751.890625 C 323.980469 730.9375 323.980469 696.964844 344.933594 676.011719 L 633.214844 387.890625 L 342.554688 97.226562 C 321.601562 76.273438 321.601562 42.300781 342.554688 21.347656 C 363.507812 0.394531 397.480469 0.394531 418.433594 21.347656 L 747.035156 349.949219 C 767.992188 370.902344 767.992188 404.875 747.035156 425.828125 L 420.816406 751.890625 C 410.339844 762.367188 396.6875 767.605469 382.875 767.605469 Z M 382.875 767.605469 " fill-opacity="1" fill-rule="nonzero"/><path fill="#eaf1ed" d="M 61.277344 767.605469 C 47.625 767.605469 33.8125 762.367188 23.335938 751.890625 C 2.382812 730.9375 2.382812 696.964844 23.335938 676.011719 L 311.617188 387.890625 L 20.953125 97.226562 C 0 76.273438 0 42.300781 20.953125 21.347656 C 41.910156 0.394531 75.878906 0.394531 96.835938 21.347656 L 425.4375 349.949219 C 446.390625 370.902344 446.390625 404.875 425.4375 425.828125 L 99.214844 751.890625 C 88.738281 762.367188 75.085938 767.605469 61.277344 767.605469 Z M 61.277344 767.605469 " fill-opacity="1" fill-rule="nonzero"/></svg>